<?xml version="1.0" encoding="utf-8" standalone="yes"?>
<!DOCTYPE svg PUBLIC "-//W3C//DTD SVG 1.1//EN" "http://www.w3.org/Graphics/SVG/1.1/DTD/svg11.dtd">
<svg width="996" height="757" viewBox="0 0 996 757" style="fill:none;stroke:none;fill-rule:evenodd;clip-rule:evenodd;stroke-linecap:round;stroke-linejoin:round;stroke-miterlimit:1.5;" version="1.1" xmlns="http://www.w3.org/2000/svg" xmlns:xlink="http://www.w3.org/1999/xlink"><style class="text-font-style fontImports" data-font-family="Roboto">@import url('https://fonts.googleapis.com/css2?family=Roboto:wght@400;700&amp;display=block');</style><g id="items" style="isolation: isolate"><g id="blend" style="mix-blend-mode: normal"><g id="g-root-sy_5_cu_Subtract_m9tyuc1hlp4az-fill" data-item-order="-377608" transform="translate(146, 530.173828125)"><g id="sy_5_cu_Subtract_m9tyuc1hlp4az-fill" stroke="none" fill="#e8f9ff"><g><path d="M 334.3239 10.0037C 153.6575 12.2629 10 48.9576 10 93.8934C 10 140.2853 163.1186 177.8934 352 177.8934C 540.8813 177.8934 694 140.2853 694 93.8934C 694 48.933 550.1851 12.2227 369.3792 10C 370.2707 12.6208 371.1595 15.3695 372.0735 18.1959C 372.1683 18.4892 372.2634 18.7833 372.3588 19.0782C 511.966 21.6223 622 50.1168 622 84.8934C 622 121.3442 501.1169 150.8934 352 150.8934C 202.8831 150.8934 82 121.3442 82 84.8934C 82 50.1395 191.8903 21.6595 331.3677 19.0832C 331.4386 18.8622 331.5093 18.6416 331.5798 18.4215C 332.5103 15.5173 333.4152 12.6932 334.3239 10.0037Z"></path></g></g></g><g id="g-root-sy_4_cu_Subtract_hu0gpw1hlp538-fill" data-item-order="-377604" transform="translate(218, 539.251953125)"><g id="sy_4_cu_Subtract_hu0gpw1hlp538-fill" stroke="none" fill="#ffebf7"><g><path d="M 259.3677 10.005C 119.8903 12.5813 10 41.0613 10 75.8152C 10 112.266 130.8831 141.8152 280 141.8152C 429.1169 141.8152 550 112.266 550 75.8152C 550 41.0386 439.966 12.5441 300.3588 10C 301.3236 12.9821 302.3193 16.0441 303.3777 19.1276C 408.3552 21.9514 490 43.5678 490 69.8152C 490 97.9817 395.9798 120.8152 280 120.8152C 164.0202 120.8152 70 97.9817 70 69.8152C 70 43.5879 151.5195 21.9846 256.3805 19.1342C 257.4265 16.0505 258.4117 12.988 259.3677 10.005Z"></path></g></g></g><g id="g-root-sy_3_cu_Subtract_8yzxk41hlp2q5-fill" data-item-order="-377600" transform="translate(278, 548.37890625)"><g id="sy_3_cu_Subtract_8yzxk41hlp2q5-fill" stroke="none" fill="#ffeceb"><g><path d="M 196.3805 10.0065C 91.5195 12.857 10 34.4603 10 60.6875C 10 88.8541 104.0202 111.6875 220 111.6875C 335.9798 111.6875 430 88.8541 430 60.6875C 430 34.4401 348.3552 12.8238 243.3777 10C 244.3157 12.7324 245.3029 15.4819 246.3617 18.2079C 323.2938 21.2777 382 37.561 382 57.1875C 382 79.0028 309.4701 96.6875 220 96.6875C 130.5299 96.6875 58 79.0028 58 57.1875C 58 37.5784 116.6021 21.3066 193.4337 18.2161C 194.4783 15.49 195.4533 12.7399 196.3805 10.0065Z"></path></g></g></g><g id="g-root-sy_2_cu_Subtract_4j6ffo1hlp3ie-fill" data-item-order="-377596" transform="translate(326, 556.5859375)"><g id="sy_2_cu_Subtract_4j6ffo1hlp3ie-fill" stroke="none" fill="#fffbda"><g><path d="M 145.4337 10.008201C 68.6021 13.0987 10 29.370501 10 48.9796C 10 70.794901 82.5299 88.4796 172 88.4796C 261.4701 88.4796 334 70.794901 334 48.9796C 334 29.3531 275.2938 13.069801 198.3617 10.000001C 199.5958 13.1774 200.9272 16.323001 202.391 19.3727C 257.2975 22.6643 298 34.671401 298 48.9796C 298 65.824301 241.5879 79.4796 172 79.4796C 102.4121 79.4796 46 65.824301 46 48.9796C 46 34.6843 86.6291 22.686 141.4603 19.3817C 142.9028 16.332601 144.2157 13.186601 145.4337 10.008201Z"></path></g></g></g><g id="g-root-sy_1_cu_Subtract_4j6ffo1hlp3if-fill" data-item-order="-377592" transform="translate(362, 565.958984375)"><g id="sy_1_cu_Subtract_4j6ffo1hlp3if-fill" stroke="none" fill="#e3fff2"><g><path d="M 105.4603 10.0089C 50.6291 13.3132 10 25.3115 10 39.6069C 10 56.4516 66.4121 70.1069 136 70.1069C 205.5879 70.1069 262 56.4516 262 39.6069C 262 25.2986 221.2975 13.2915 166.391 10C 167.5421 12.3981 168.7751 14.737 170.1072 16.9854C 209.6677 20.2872 237.9999 29.1705 237.9999 39.6108C 237.9999 52.8656 192.3327 63.6108 135.9995 63.6108C 79.6662 63.6108 33.999 52.8656 33.999 39.6108C 33.999 29.1787 62.2868 20.3012 101.7986 16.9932C 103.1108 14.7459 104.3257 12.4074 105.4603 10.0089Z"></path></g></g></g><g id="g-root-sy_0_cu_3cxb81hlp4ao-fill" data-item-order="-377588" transform="translate(386, 361.563232421875)"><g id="sy_0_cu_3cxb81hlp4ao-fill" stroke="none" fill="#f5f5f5"><g><path d="M 91.5808 187.031159C 97.1439 169.668259 101.7895 155.169159 111.8222 155.169159C 121.8442 155.169159 126.4906 169.537859 132.0744 186.805559C 135.7476 198.164759 139.8265 210.778459 146.1082 221.381659C 185.6687 224.683459 214.0009 233.566759 214.0009 244.007059C 214.0009 257.261859 168.3337 268.007059 112.0004 268.007059C 55.6672 268.007059 10 257.261859 10 244.007059C 10 233.574959 38.2878 224.697459 77.7996 221.389459C 83.9442 210.865359 87.9571 198.340759 91.5808 187.031159Z"></path></g></g><g id="sy_0_cu_3cxb81hlp4ao-fill" stroke="none" fill="#f5f5f5"><g><path d="M 82.000702 40.008007C 81.996081 56.579619 95.428732 70.016017 112.000346 70.016017C 128.57196 70.016017 142.004611 56.579619 141.99999 40.008006C 142.004611 23.436393 128.57196 9.999995 112.000346 9.999995C 95.428732 9.999995 81.996081 23.436393 82.000702 40.008006M 94 112.588421C 94.000001 122.529486 102.058826 130.588311 111.99989 130.588311C 121.940954 130.588311 129.999779 122.529486 129.999779 112.588421C 129.999779 102.647357 121.940954 94.588532 111.99989 94.588532C 102.058826 94.588532 94.000001 102.647357 94.000001 112.588421"></path></g></g></g><g id="g-root-sy_-1_vector_3cxb81hlp4ap-fill" data-item-order="-377583" transform="translate(254.00021362304688, 434)"></g><g id="g-root-sy_-1_vector_1_1q8tz1g1hlp4wa-fill" data-item-order="-377579" transform="translate(650, 290)"></g><g id="g-root-sy_-1_vector_2_1q8tz1g1hlp4wb-fill" data-item-order="-377575" transform="translate(254.00021362304688, 290)"></g><g id="g-root-sy_-1_vector_3_1ltmy041hlp2is-fill" data-item-order="-377571" transform="translate(602, 146)"></g><g id="g-root-sy_-1_vector_4_1ltmy041hlp2it-fill" data-item-order="-377567" transform="translate(254.00021362304688, 146)"></g><g id="g-root-ic_hete_dl26jo1hlp4b0-fill" data-item-order="0" transform="translate(734, 266)"></g><g id="g-root-tx_genderid_1czvd0k1hlp2bz-fill" data-item-order="0" transform="translate(794, 266)"><g id="tx_genderid_1czvd0k1hlp2bz-fill" stroke="none" fill="#de58a9"><g><text style="font: bold 20px Roboto, sans-serif; white-space: pre;" font-weight="bold" font-size="20px" font-family="Roboto, sans-serif"><tspan x="12" y="34" dominant-baseline="ideographic">Gender &amp; AI </tspan><tspan x="12" y="58" dominant-baseline="ideographic">Embodiment</tspan></text></g></g></g><g id="g-root-ic_buil_zqa9wk1hlp2x6-fill" data-item-order="0" transform="translate(194, 266)"></g><g id="g-root-tx_brandloy_1luvw6c1hlp4p2-fill" data-item-order="0" transform="translate(38.00000762939453, 266)"><g id="tx_brandloy_1luvw6c1hlp4p2-fill" stroke="none" fill="#e55753"><g><text style="font: bold 20px Roboto, sans-serif; white-space: pre;" font-weight="bold" font-size="20px" font-family="Roboto, sans-serif"><tspan x="59.49" y="34" dominant-baseline="ideographic">Consumer </tspan><tspan x="47.91" y="58" dominant-baseline="ideographic">Psychology</tspan></text></g></g></g><g id="g-root-tx_analyzin_qriw841hlp3b5-fill" data-item-order="0" transform="translate(14, 326)"><g id="tx_analyzin_qriw841hlp3b5-fill" stroke="none" fill="#484848"><g><text style="font: 15px Roboto, sans-serif; white-space: pre;" font-size="15px" font-family="Roboto, sans-serif"><tspan x="15.74" y="31" dominant-baseline="ideographic">Analyzing psychological </tspan><tspan x="42.36" y="49" dominant-baseline="ideographic">factors in consumer </tspan><tspan x="92.5" y="67" dominant-baseline="ideographic">engagement</tspan></text></g></g></g><g id="g-root-tx_investig_hvvvz81hlp43u-fill" data-item-order="0" transform="translate(794, 326)"><g id="tx_investig_hvvvz81hlp43u-fill" stroke="none" fill="#484848"><g><text style="font: 15px Roboto, sans-serif; white-space: pre;" font-size="15px" font-family="Roboto, sans-serif"><tspan x="12" y="28" dominant-baseline="ideographic">Investigating gender </tspan><tspan x="12" y="46" dominant-baseline="ideographic">representation in AI</tspan></text></g></g></g><g id="g-root-tx_studying_v7ceck1hlp2iw-fill" data-item-order="0" transform="translate(794, 182)"><g id="tx_studying_v7ceck1hlp2iw-fill" stroke="none" fill="#484848"><g><text style="font: 15px Roboto, sans-serif; white-space: pre;" font-size="15px" font-family="Roboto, sans-serif"><tspan x="12" y="28" dominant-baseline="ideographic">Studying conversational </tspan><tspan x="12" y="46" dominant-baseline="ideographic">AI and user engagement</tspan></text></g></g></g><g id="g-root-ic_serv_v8lcis1hlp4p5-fill" data-item-order="0" transform="translate(194, 410)"></g><g id="g-root-tx_dataethi_1hfov501hlp2bk-fill" data-item-order="0" transform="translate(50, 434)"><g id="tx_dataethi_1hfov501hlp2bk-fill" stroke="none" fill="#1eabda"><g><text style="font: bold 20px Roboto, sans-serif; white-space: pre;" font-weight="bold" font-size="20px" font-family="Roboto, sans-serif"><tspan x="17.36" y="34" dominant-baseline="ideographic">Ethics &amp; Biais</tspan></text></g></g></g><g id="g-root-tx_explorin_18i6fms1hlp43r-fill" data-item-order="0" transform="translate(38, 182)"><g id="tx_explorin_18i6fms1hlp43r-fill" stroke="none" fill="#484848"><g><text style="font: 15px Roboto, sans-serif; white-space: pre;" font-size="15px" font-family="Roboto, sans-serif"><tspan x="17.65" y="28" dominant-baseline="ideographic">Exploring how users </tspan><tspan x="43.44" y="46" dominant-baseline="ideographic">trust AI systems</tspan></text></g></g></g><g id="g-root-tx_examinin_dg2dus1hlp4w3-fill" data-item-order="0" transform="translate(50, 470)"><g id="tx_examinin_dg2dus1hlp4w3-fill" stroke="none" fill="#484848"><g><text style="font: 15px Roboto, sans-serif; white-space: pre;" font-size="15px" font-family="Roboto, sans-serif"><tspan x="22.28" y="28" dominant-baseline="ideographic">Examining ethical </tspan><tspan x="23.25" y="46" dominant-baseline="ideographic">implications of AI</tspan></text></g></g></g><g id="g-root-tx_consumer_4l1up01hlp2j0-fill" data-item-order="0" transform="translate(26, 146)"><g id="tx_consumer_4l1up01hlp2j0-fill" stroke="none" fill="#3cc583"><g><text style="font: bold 20px Roboto, sans-serif; white-space: pre;" font-weight="bold" font-size="20px" font-family="Roboto, sans-serif"><tspan x="19.74" y="34" dominant-baseline="ideographic">Consumer Trust</tspan></text></g></g></g><g id="g-root-tx_voiceass_1qapeas1hlp3wt-fill" data-item-order="0" transform="translate(794, 122)"><g id="tx_voiceass_1qapeas1hlp3wt-fill" stroke="none" fill="#e0cb15"><g><text style="font: bold 20px Roboto, sans-serif; white-space: pre;" font-weight="bold" font-size="20px" font-family="Roboto, sans-serif"><tspan x="12" y="34" dominant-baseline="ideographic">Human-Machine </tspan><tspan x="12" y="58" dominant-baseline="ideographic">Interaction</tspan></text></g></g></g><g id="g-root-ic_robo_13z8k2s1hlqhvp-fill" data-item-order="0" transform="translate(734, 122)"></g><g id="g-root-ic_robo_1qdtrqc1hlp537-fill" data-item-order="0" transform="translate(194, 122)"></g><g id="g-root-sy_5_cu_Subtract_m9tyuc1hlp4az-stroke" data-item-order="-377608" transform="translate(146, 530.173828125)"><g id="sy_5_cu_Subtract_m9tyuc1hlp4az-stroke" fill="none" stroke-linecap="round" stroke-linejoin="round" stroke-miterlimit="4" stroke="#1eabda" stroke-width="2"><g><path d="M 334.3239 10.0037C 153.6575 12.2629 10 48.9576 10 93.8934C 10 140.2853 163.1186 177.8934 352 177.8934C 540.8813 177.8934 694 140.2853 694 93.8934C 694 48.933 550.1851 12.2227 369.3792 10C 370.2707 12.6208 371.1595 15.3695 372.0735 18.1959C 372.1683 18.4892 372.2634 18.7833 372.3588 19.0782C 511.966 21.6223 622 50.1168 622 84.8934C 622 121.3442 501.1169 150.8934 352 150.8934C 202.8831 150.8934 82 121.3442 82 84.8934C 82 50.1395 191.8903 21.6595 331.3677 19.0832C 331.4386 18.8622 331.5093 18.6416 331.5798 18.4215C 332.5103 15.5173 333.4152 12.6932 334.3239 10.0037Z"></path></g></g></g><g id="g-root-sy_4_cu_Subtract_hu0gpw1hlp538-stroke" data-item-order="-377604" transform="translate(218, 539.251953125)"><g id="sy_4_cu_Subtract_hu0gpw1hlp538-stroke" fill="none" stroke-linecap="round" stroke-linejoin="round" stroke-miterlimit="4" stroke="#de58a9" stroke-width="2"><g><path d="M 259.3677 10.005C 119.8903 12.5813 10 41.0613 10 75.8152C 10 112.266 130.8831 141.8152 280 141.8152C 429.1169 141.8152 550 112.266 550 75.8152C 550 41.0386 439.966 12.5441 300.3588 10C 301.3236 12.9821 302.3193 16.0441 303.3777 19.1276C 408.3552 21.9514 490 43.5678 490 69.8152C 490 97.9817 395.9798 120.8152 280 120.8152C 164.0202 120.8152 70 97.9817 70 69.8152C 70 43.5879 151.5195 21.9846 256.3805 19.1342C 257.4265 16.0505 258.4117 12.988 259.3677 10.005Z"></path></g></g></g><g id="g-root-sy_3_cu_Subtract_8yzxk41hlp2q5-stroke" data-item-order="-377600" transform="translate(278, 548.37890625)"><g id="sy_3_cu_Subtract_8yzxk41hlp2q5-stroke" fill="none" stroke-linecap="round" stroke-linejoin="round" stroke-miterlimit="4" stroke="#e55753" stroke-width="2"><g><path d="M 196.3805 10.0065C 91.5195 12.857 10 34.4603 10 60.6875C 10 88.8541 104.0202 111.6875 220 111.6875C 335.9798 111.6875 430 88.8541 430 60.6875C 430 34.4401 348.3552 12.8238 243.3777 10C 244.3157 12.7324 245.3029 15.4819 246.3617 18.2079C 323.2938 21.2777 382 37.561 382 57.1875C 382 79.0028 309.4701 96.6875 220 96.6875C 130.5299 96.6875 58 79.0028 58 57.1875C 58 37.5784 116.6021 21.3066 193.4337 18.2161C 194.4783 15.49 195.4533 12.7399 196.3805 10.0065Z"></path></g></g></g><g id="g-root-sy_2_cu_Subtract_4j6ffo1hlp3ie-stroke" data-item-order="-377596" transform="translate(326, 556.5859375)"><g id="sy_2_cu_Subtract_4j6ffo1hlp3ie-stroke" fill="none" stroke-linecap="round" stroke-linejoin="round" stroke-miterlimit="4" stroke="#e0cb15" stroke-width="2"><g><path d="M 145.4337 10.008201C 68.6021 13.0987 10 29.370501 10 48.9796C 10 70.794901 82.5299 88.4796 172 88.4796C 261.4701 88.4796 334 70.794901 334 48.9796C 334 29.3531 275.2938 13.069801 198.3617 10.000001C 199.5958 13.1774 200.9272 16.323001 202.391 19.3727C 257.2975 22.6643 298 34.671401 298 48.9796C 298 65.824301 241.5879 79.4796 172 79.4796C 102.4121 79.4796 46 65.824301 46 48.9796C 46 34.6843 86.6291 22.686 141.4603 19.3817C 142.9028 16.332601 144.2157 13.186601 145.4337 10.008201Z"></path></g></g></g><g id="g-root-sy_1_cu_Subtract_4j6ffo1hlp3if-stroke" data-item-order="-377592" transform="translate(362, 565.958984375)"><g id="sy_1_cu_Subtract_4j6ffo1hlp3if-stroke" fill="none" stroke-linecap="round" stroke-linejoin="round" stroke-miterlimit="4" stroke="#3cc583" stroke-width="2"><g><path d="M 105.4603 10.0089C 50.6291 13.3132 10 25.3115 10 39.6069C 10 56.4516 66.4121 70.1069 136 70.1069C 205.5879 70.1069 262 56.4516 262 39.6069C 262 25.2986 221.2975 13.2915 166.391 10C 167.5421 12.3981 168.7751 14.737 170.1072 16.9854C 209.6677 20.2872 237.9999 29.1705 237.9999 39.6108C 237.9999 52.8656 192.3327 63.6108 135.9995 63.6108C 79.6662 63.6108 33.999 52.8656 33.999 39.6108C 33.999 29.1787 62.2868 20.3012 101.7986 16.9932C 103.1108 14.7459 104.3257 12.4074 105.4603 10.0089Z"></path></g></g></g><g id="g-root-sy_0_cu_3cxb81hlp4ao-stroke" data-item-order="-377588" transform="translate(386, 361.563232421875)"><g id="sy_0_cu_3cxb81hlp4ao-stroke" fill="none" stroke-linecap="round" stroke-linejoin="round" stroke-miterlimit="4" stroke="#969696" stroke-width="2"><g><path d="M 91.5808 187.031159C 97.1439 169.668259 101.7895 155.169159 111.8222 155.169159C 121.8442 155.169159 126.4906 169.537859 132.0744 186.805559C 135.7476 198.164759 139.8265 210.778459 146.1082 221.381659C 185.6687 224.683459 214.0009 233.566759 214.0009 244.007059C 214.0009 257.261859 168.3337 268.007059 112.0004 268.007059C 55.6672 268.007059 10 257.261859 10 244.007059C 10 233.574959 38.2878 224.697459 77.7996 221.389459C 83.9442 210.865359 87.9571 198.340759 91.5808 187.031159ZM 146.108161 221.38205C 152.445561 231.97505 161.184161 240.80485 173.792561 244.00765M 77.799661 221.38985C 71.497761 232.09895 62.828761 240.93005 50.209961 244.00765"></path></g></g><g id="sy_0_cu_3cxb81hlp4ao-stroke" fill="none" stroke-linecap="round" stroke-linejoin="round" stroke-miterlimit="4" stroke="#969696" stroke-width="2"><g><path d="M 82.000702 40.008007C 81.996081 56.579619 95.428732 70.016017 112.000346 70.016017C 128.57196 70.016017 142.004611 56.579619 141.99999 40.008006C 142.004611 23.436393 128.57196 9.999995 112.000346 9.999995C 95.428732 9.999995 81.996081 23.436393 82.000702 40.008006M 94 112.588421C 94.000001 122.529486 102.058826 130.588311 111.99989 130.588311C 121.940954 130.588311 129.999779 122.529486 129.999779 112.588421C 129.999779 102.647357 121.940954 94.588532 111.99989 94.588532C 102.058826 94.588532 94.000001 102.647357 94.000001 112.588421"></path></g></g></g><g id="g-root-sy_-1_vector_3cxb81hlp4ap-stroke" data-item-order="-377583" transform="translate(254.00021362304688, 434)"><g id="sy_-1_vector_3cxb81hlp4ap-stroke" fill="none" stroke-linecap="round" stroke-linejoin="round" stroke-miterlimit="4" stroke="#969696" stroke-width="2"><style>.fillAsStrokeColor-mk-qsswbo1izwv7t { fill:#969696; }</style><g><path d="M 10 10L 22 10C 28.6274 10 34 15.4351 34 22.1395L 34 124"></path><path d="M 31 124C 31.000001 125.656858 32.343146 127.000003 34.000001 127.000003C 35.656855 127.000003 37.000001 125.656858 37.000001 124.000003C 37.000001 122.343149 35.656855 121.000003 34.000001 121.000003C 32.343146 121.000003 31.000001 122.343149 31.000001 124.000003Z" stroke-dasharray="none" class="fillAsStrokeColor-mk-qsswbo1izwv7t"></path></g></g></g><g id="g-root-sy_-1_vector_1_1q8tz1g1hlp4wa-stroke" data-item-order="-377579" transform="translate(650, 290)"><g id="sy_-1_vector_1_1q8tz1g1hlp4wa-stroke" fill="none" stroke-linecap="round" stroke-linejoin="round" stroke-miterlimit="4" stroke="#969696" stroke-width="2"><style>.fillAsStrokeColor-mk-mcze781izww02 { fill:#969696; }</style><g><path d="M 82 10L 34 10C 20.7452 10 10 20.7786 10 34.0748L 10 272"></path><path d="M 7 272C 7 273.656862 8.343146 275.000008 10 275.000008C 11.656854 275.000008 13 273.656862 13 272.000008C 13 270.343154 11.656854 269.000008 10 269.000008C 8.343146 269.000008 7 270.343154 7 272.000008Z" stroke-dasharray="none" class="fillAsStrokeColor-mk-mcze781izww02"></path></g></g></g><g id="g-root-sy_-1_vector_2_1q8tz1g1hlp4wb-stroke" data-item-order="-377575" transform="translate(254.00021362304688, 290)"><g id="sy_-1_vector_2_1q8tz1g1hlp4wb-stroke" fill="none" stroke-linecap="round" stroke-linejoin="round" stroke-miterlimit="4" stroke="#969696" stroke-width="2"><style>.fillAsStrokeColor-mk-dhcdyc1izwwsr { fill:#969696; }</style><g><path d="M 10 10L 58 10C 71.2548 10 82 20.8093 82 34.1433L 82 287"></path><path d="M 79 287C 79.000002 288.656863 80.343148 290.000008 82.000002 290.000008C 83.656856 290.000008 85.000002 288.656863 85.000002 287.000008C 85.000002 285.343154 83.656856 284.000008 82.000002 284.000008C 80.343148 284.000008 79.000002 285.343154 79.000002 287.000008Z" stroke-dasharray="none" class="fillAsStrokeColor-mk-dhcdyc1izwwsr"></path></g></g></g><g id="g-root-sy_-1_vector_3_1ltmy041hlp2is-stroke" data-item-order="-377571" transform="translate(602, 146)"><g id="sy_-1_vector_3_1ltmy041hlp2is-stroke" fill="none" stroke-linecap="round" stroke-linejoin="round" stroke-miterlimit="4" stroke="#969696" stroke-width="2"><style>.fillAsStrokeColor-mk-91ivtw1izwxl0 { fill:#969696; }</style><g><path d="M 130 10L 46.3025 10C 26.2532 10 10 26.1178 10 46L 10 431"></path><path d="M 7 431C 7 432.656867 8.343146 434.000013 10 434.000013C 11.656854 434.000013 13 432.656867 13 431.000013C 13 429.343158 11.656854 428.000013 10 428.000013C 8.343146 428.000013 7 429.343158 7 431.000013Z" stroke-dasharray="none" class="fillAsStrokeColor-mk-91ivtw1izwxl0"></path></g></g></g><g id="g-root-sy_-1_vector_4_1ltmy041hlp2it-stroke" data-item-order="-377567" transform="translate(254.00021362304688, 146)"><g id="sy_-1_vector_4_1ltmy041hlp2it-stroke" fill="none" stroke-linecap="round" stroke-linejoin="round" stroke-miterlimit="4" stroke="#969696" stroke-width="2"><style>.fillAsStrokeColor-mk-91ivtw1izwxl1 { fill:#969696; }</style><g><path d="M 10 10L 94 10C 113.8822 10 130 26.1177 130 46L 130 447"></path><path d="M 127 447C 127.000004 448.656867 128.343149 450.000013 130.000004 450.000013C 131.656858 450.000013 133.000004 448.656867 133.000004 447.000013C 133.000004 445.343159 131.656858 444.000013 130.000004 444.000013C 128.343149 444.000013 127.000004 445.343159 127.000004 447.000013Z" stroke-dasharray="none" class="fillAsStrokeColor-mk-91ivtw1izwxl1"></path></g></g></g><g id="g-root-ic_hete_dl26jo1hlp4b0-stroke" data-item-order="0" transform="translate(734, 266)"><g id="ic_hete_dl26jo1hlp4b0-stroke" fill="none" stroke-linecap="round" stroke-linejoin="round" stroke-miterlimit="4" stroke="#de58a9" stroke-width="2"><g><path d="M 17.248039 21.900021C 18.9049 21.900021 20.248039 20.556881 20.248039 18.900021C 20.248039 17.243179 18.9049 15.900021 17.248039 15.900021C 15.5912 15.900021 14.24804 17.243179 14.24804 18.900021C 14.24804 20.556881 15.5912 21.900021 17.248039 21.900021ZM 10 10M 20.248039 18.900021L 30.996 18.900021M 14.5 36.900002C 16.15686 36.900002 17.5 35.556801 17.5 33.900002C 17.5 32.243202 16.15686 30.9 14.5 30.9C 12.84314 30.9 11.5 32.243202 11.5 33.900002C 11.5 35.556801 12.84314 36.900002 14.5 36.900002ZM 10 10M 17.5 33.900002L 30.996 33.900002M 17.248039 51.900002C 18.9049 51.900002 20.248039 50.556801 20.248039 48.900002C 20.248039 47.243198 18.9049 45.900002 17.248039 45.900002C 15.5912 45.900002 14.24804 47.243198 14.24804 48.900002C 14.24804 50.556801 15.5912 51.900002 17.248039 51.900002ZM 10 10M 20.25 48.900002L 30.996 48.900002M 21.248039 41.900002L 25.248039 41.900002L 25.248039 48.888802M 24.12208 26.900021L 30.996 26.900021M 30.996 11.900024C 47.195999 11.900024 50.596001 25.100021 56.396 40.099998C 56.796001 41.299999 55.995998 42.5 54.796001 42.5L 50.596001 42.5L 50.596001 49.299999C 50.596001 53.099998 47.596001 56.099998 43.796001 56.099998L 30.996 56.099998L 30.996 11.900024ZM 44.593601 44.900002C 45.593601 46.900002 48.593601 46.900002 50.593601 46.900002M 43.596001 32.299801C 43.375198 32.299801 43.195999 32.1208 43.195999 31.899799C 43.195999 31.679001 43.375198 31.4998 43.596001 31.4998M 43.596001 32.299801C 43.816799 32.299801 43.995998 32.1208 43.995998 31.899799C 43.995998 31.679001 43.816799 31.4998 43.596001 31.4998"></path></g></g></g><g id="g-root-tx_genderid_1czvd0k1hlp2bz-stroke" data-item-order="0" transform="translate(794, 266)"></g><g id="g-root-ic_buil_zqa9wk1hlp2x6-stroke" data-item-order="0" transform="translate(194, 266)"><g id="ic_buil_zqa9wk1hlp2x6-stroke" fill="none" stroke-linecap="round" stroke-linejoin="round" stroke-miterlimit="4" stroke="#e55753" stroke-width="2"><g><path d="M 11 13C 11 11.895431 11.895431 11 13 11L 41 11C 42.104568 11 43 11.895431 43 13L 43 35C 43 36.104568 42.104568 37 41 37L 36 37L 36 43L 29 37L 13 37C 11.895431 37 11 36.104568 11 35ZM 52.5 36C 52.223858 36 52 36.223858 52 36.5C 52 36.776142 52.223858 37 52.5 37C 52.776142 37 53 36.776142 53 36.5C 53 36.223858 52.776142 36 52.5 36M 57 57L 55 57C 53.161491 56.830421 51.556683 55.684128 50.799999 54C 50.614319 53.609989 50.694439 53.145313 51 52.84L 54 49L 50 49C 49.447716 49 49 48.552284 49 48L 49 45L 45 45C 44.680496 45.001938 44.379303 44.851086 44.189499 44.594063C 43.999699 44.337036 43.944141 44.004791 44.040001 43.700001L 47 37C 47 27 53 25 57 25M 35 16L 32.220001 26.34C 32.089516 26.736677 31.717571 27.003508 31.299999 26.999998L 23.139999 27C 22.742638 26.996284 22.38361 26.762135 22.219999 26.4L 20 20.4C 19.84 20.099998 19.84 19.74 20 19.439999C 20.216679 19.108116 20.608925 18.935528 21 19L 34.18 19M 23.5 30C 23.776142 30 24 30.223858 24 30.5C 24 30.776142 23.776142 31 23.5 31C 23.223858 31 23 30.776142 23 30.5C 23 30.223858 23.223858 30 23.5 30M 30.5 30C 30.776142 30 31 30.223858 31 30.5C 31 30.776142 30.776142 31 30.5 31C 30.223858 31 30 30.776142 30 30.5C 30 30.223858 30.223858 30 30.5 30"></path></g></g></g><g id="g-root-tx_brandloy_1luvw6c1hlp4p2-stroke" data-item-order="0" transform="translate(38.00000762939453, 266)"></g><g id="g-root-tx_analyzin_qriw841hlp3b5-stroke" data-item-order="0" transform="translate(14, 326)"></g><g id="g-root-tx_investig_hvvvz81hlp43u-stroke" data-item-order="0" transform="translate(794, 326)"></g><g id="g-root-tx_studying_v7ceck1hlp2iw-stroke" data-item-order="0" transform="translate(794, 182)"></g><g id="g-root-ic_serv_v8lcis1hlp4p5-stroke" data-item-order="0" transform="translate(194, 410)"><g id="ic_serv_v8lcis1hlp4p5-stroke" fill="none" stroke-linecap="round" stroke-linejoin="round" stroke-miterlimit="4" stroke="#1eabda" stroke-width="2"><g><path d="M 27.71212 35.845802L 27.71212 29.130819C 26.231119 27.75882 25.19828 25.972099 24.74844 24.004C 24.298599 22.035919 24.4527 19.977921 25.19058 18.098759C 25.92848 16.219601 27.215879 14.60662 28.884661 13.47044C 30.5534 12.33426 32.526001 11.727712 34.5448 11.729986C 42.196602 11.729986 43.848202 18.030079 46.576 25.10618C 46.622601 25.22798 46.639198 25.359341 46.623798 25.488899C 46.608601 25.618481 46.562 25.74238 46.488201 25.84996C 46.4142 25.95752 46.315399 26.04554 46.200001 26.106421C 46.084599 26.167299 45.9562 26.199221 45.8256 26.199421L 43.7892 26.199421L 43.7892 29.414841C 43.7892 30.267599 43.450401 31.0854 42.847401 31.6884C 42.2444 32.291599 41.426598 32.630199 40.573799 32.630199L 38.966202 32.630199L 38.966202 35.845802M 10 10M 17.5 56.27L 13.5 51.509998C 12.21384 49.918598 11.5084 47.936199 11.5 45.889999L 11.5 35.549999C 11.5 34.754402 11.81607 33.991402 12.37868 33.428802C 12.94128 32.866199 13.70436 32.549999 14.5 32.549999L 14.5 32.549999C 15.29564 32.549999 16.05872 32.866199 16.621319 33.428802C 17.18392 33.991402 17.5 34.754402 17.5 35.549999L 17.5 43.290001M 26.500601 56.27L 26.500601 50.27C 26.504459 48.488998 25.97506 46.747601 24.9806 45.27L 22.7006 41.77C 22.5072 41.437 22.246761 41.148003 21.93576 40.920799C 21.624779 40.693802 21.27 40.533798 20.89394 40.451202C 20.517879 40.368401 20.12874 40.364799 19.751179 40.440201C 19.373619 40.5158 19.01586 40.668999 18.7006 40.889999L 18.7006 40.889999C 18.135139 41.270203 17.727739 41.843597 17.554699 42.502602C 17.38166 43.161598 17.454861 43.861198 17.760601 44.470001L 20.4606 48.970001M 10 10M 50.5 56.27L 54.5 51.509998C 55.786201 49.918598 56.4916 47.936199 56.5 45.889999L 56.5 35.549999C 56.5 34.754402 56.183998 33.991402 55.621399 33.428802C 55.0588 32.866199 54.295601 32.549999 53.5 32.549999C 52.704399 32.549999 51.9412 32.866199 51.378601 33.428802C 50.816002 33.991402 50.5 34.754402 50.5 35.549999L 50.5 43.290001M 41.5 56.27L 41.5 50.27C 41.496201 48.488998 42.0256 46.747601 43.02 45.27L 45.299999 41.77C 45.493401 41.437 45.753799 41.148003 46.0648 40.920799C 46.375801 40.693802 46.730598 40.533798 47.106602 40.451202C 47.4828 40.368401 47.871799 40.364799 48.249401 40.440201C 48.626999 40.5158 48.984798 40.668999 49.299999 40.889999L 49.299999 40.889999C 49.865398 41.270203 50.2728 41.843597 50.445999 42.502602C 50.618999 43.161598 50.545799 43.861198 50.240002 44.470001L 47.540001 48.970001"></path></g></g></g><g id="g-root-tx_dataethi_1hfov501hlp2bk-stroke" data-item-order="0" transform="translate(50, 434)"></g><g id="g-root-tx_explorin_18i6fms1hlp43r-stroke" data-item-order="0" transform="translate(38, 182)"></g><g id="g-root-tx_examinin_dg2dus1hlp4w3-stroke" data-item-order="0" transform="translate(50, 470)"></g><g id="g-root-tx_consumer_4l1up01hlp2j0-stroke" data-item-order="0" transform="translate(26, 146)"></g><g id="g-root-tx_voiceass_1qapeas1hlp3wt-stroke" data-item-order="0" transform="translate(794, 122)"></g><g id="g-root-ic_robo_13z8k2s1hlqhvp-stroke" data-item-order="0" transform="translate(734, 122)"><g id="ic_robo_13z8k2s1hlqhvp-stroke" fill="none" stroke-linecap="round" stroke-linejoin="round" stroke-miterlimit="4" stroke="#e0cb15" stroke-width="2"><g><path d="M 47.5 43.5C 51.366001 43.5 54.5 40.365997 54.5 36.5C 54.5 32.634003 51.366001 29.499941 47.5 29.499941C 43.633999 29.499941 40.5 32.634003 40.5 36.5C 40.5 40.365997 43.633999 43.5 47.5 43.5ZM 56.5 56.5C 56.5 51.5 52.5 47.5 47.5 47.5C 45.700001 47.5 43.900002 48.099998 42.5 48.900002C 35.700001 46.700001 32.099998 41.099998 31.9 41.099998C 30.9 39.5 28.699961 38.900002 27.09996 39.900002C 25.49996 40.900002 24.89996 43.099998 25.89996 44.700001C 26.09996 45.099998 30.299999 51.5 38.5 54.900002C 38.5 55.299999 38.299999 55.900002 38.299999 56.299999M 26.92968 18.9L 34.327 18.9L 34.327 14.5L 39.327 14.5M 42.327 17.5C 43.983799 17.5 45.327 16.15686 45.327 14.5C 45.327 12.84314 43.983799 11.5 42.327 11.5C 40.669998 11.5 39.327 12.84314 39.327 14.5C 39.327 16.15686 40.669998 17.5 42.327 17.5ZM 34.327 18.8999L 34.327 21.8999M 15.50006 33.447601L 15.50006 39M 15.50006 45C 17.156919 45 18.500061 43.656799 18.500061 42C 18.500061 40.343201 17.156919 39 15.50006 39C 13.8432 39 12.50006 40.343201 12.50006 42C 12.50006 43.656799 13.8432 45 15.50006 45ZM 26.93088 33.6712C 26.93088 34.3834 26.456079 35.0956 25.981281 35.5704C 25.2691 36.0452 24.5569 36.0452 23.8447 36.0452L 13.16178 32.7216C 12.2122 32.4842 11.5 31.534599 11.5 30.347601L 11.5 17.29068C 11.5 16.341101 12.2122 15.3915 13.16178 14.9167L 23.8447 11.593132C 24.5569 11.355734 25.2691 11.593134 25.981281 12.06792C 26.69348 12.54272 26.93088 13.25492 26.93088 13.96712L 26.93088 33.6712Z"></path></g></g></g><g id="g-root-ic_robo_1qdtrqc1hlp537-stroke" data-item-order="0" transform="translate(194, 122)"><g id="ic_robo_1qdtrqc1hlp537-stroke" fill="none" stroke-linecap="round" stroke-linejoin="round" stroke-miterlimit="4" stroke="#3cc583" stroke-width="2"><g><path d="M 10 10M 35.902199 45.429199L 44.389198 40.529198C 46.294601 39.429199 48.5802 40.188202 49.5802 41.9202C 50.680199 43.825401 49.921398 46.111 48.189201 47.111L 36.931 53.611C 34.679199 54.910999 32.200798 55.418201 29.668819 55.0326L 23.39938 54.0644L 19.858959 56.1432M 10 10M 11.761718 46.460999L 22.87538 40.068199C 24.78064 38.968201 26.98592 38.387802 29.14476 38.527L 34.181999 38.851799C 36.240799 38.817802 37.687202 40.523201 37.721199 42.582001C 37.555199 44.294399 36.296402 45.714199 34.510799 45.821201L 27.96104 45.6768M 39.958 17.632L 51.639999 17.632C 51.639999 17.632 56.242001 17.632 56.242001 22.234001L 56.242001 29.278C 56.242001 29.278 56.242001 33.879997 51.639999 33.879997L 39.958 33.879997C 39.958 33.879997 35.356003 33.879997 35.356003 29.278L 35.356003 22.234001C 35.356003 22.234001 35.356003 17.632 39.958 17.632M 10 10M 45.796799 11.224212L 45.796799 17.63282M 10 10M 42.375 24.325241L 42.375 27.21876M 10 10M 49.222599 24.325241L 49.222599 27.21876"></path></g></g></g></g></g><path id="w93e7xw1knq80d" d="M65.283 12.757a.35.35 0 0 0 .584.157l5.203-5.141-6.183 3.523.396 1.461zm-2.216-11.7a.35.35 0 0 0-.522.305v3.111l3.276-1.868-2.754-1.548zm3.728 2.105l-4.25 2.421v2.445l6.391-3.644-2.141-1.222zm4.708 3.303a.35.35 0 0 0 0-.609l-1.592-.9-7.365 4.199v1.782a.35.35 0 0 0 .523.305l8.435-4.777z M44.542 2.513c0-.433.355-.783.792-.783s.792.35.792.783-.355.783-.792.783-.792-.35-.792-.783zm59.171 0c0-.433.355-.783.792-.783s.792.35.792.783-.355.783-.792.783-.792-.35-.792-.783zm-85.951 7.636h-1.27v-.487c-.276.201-.864.609-1.881.609-1.202 0-2.274-.794-2.137-2.078.118-1.106 1.153-1.584 1.848-1.727l2.17-.345c0-.539-.29-.956-1.064-1.006s-1.21.305-1.571 1.017l-1.124-.605c1.218-2.631 5.029-1.764 5.029.414v4.207zm-1.27-2.86c.006.396-.062 1.112-.819 1.59-.587.37-1.841.299-1.903-.395-.049-.555.461-.791.906-.898l1.816-.297zm72.662 2.86h-1.27v-.487c-.276.201-.864.609-1.881.609-1.202 0-2.274-.794-2.137-2.078.118-1.106 1.153-1.584 1.848-1.727l2.17-.345c0-.539-.29-.956-1.064-1.006s-1.21.305-1.571 1.017l-1.124-.605c1.218-2.631 5.029-1.764 5.029.414v4.207zm-1.27-2.86c.006.396-.062 1.112-.82 1.59-.587.37-1.841.299-1.903-.395-.049-.555.461-.791.906-.898l1.816-.297zM99.096 10.149H97.85v-8.45h1.246v4.895l2.68-2.559h1.738l-2.633 2.535 2.715 3.578h-1.556l-2.077-2.707-.867.844v1.863zm6.053-6.114h-1.255v6.113h1.255V4.035zm-59.2 0h-1.255v6.113h1.255V4.035zm5.584 6.113V1.697h1.255v2.695c.361-.346 1-.485 1.47-.485 1.452 0 2.477 1.082 2.457 2.448v3.792h-1.27v-3.68c0-.408-.214-1.339-1.315-1.339-.968 0-1.342.756-1.342 1.339v3.681h-1.255zm-4.76-4.894V4.039h.621a.45.45 0 0 0 .45-.45v-.855h1.251v1.305h1.309v1.215h-1.309v3.109c0 .293.105.664.648.664.365 0 .531-.035.736-.07v1.137s-.361.113-.857.113c-1.398 0-1.777-1.051-1.777-1.788V5.254h-1.071zM36.528 4.039h-1.394l2.191 6.106h1.125l1.234-3.918 1.238 3.918h1.129l2.188-6.106h-1.383l-1.359 3.93-1.256-3.93h-1.124l-1.242 3.957-1.348-3.957zM26.212 7.141c-.02 1.566 1.187 3.129 3.223 3.129 1.566 0 2.383-.918 2.734-1.719L31.172 8c-.315.399-.801 1.094-1.738 1.094-1.145 0-1.825-.781-1.891-1.52h4.625c.074-.284.148-.995-.03-1.559-.336-1.064-1.221-2.102-2.839-2.102s-3.088 1.152-3.088 3.227zm1.363-.75h3.348c-.055-.43-.566-1.301-1.623-1.301a1.79 1.79 0 0 0-1.725 1.301zm-8.758.75c.038 1.758 1.277 3.133 3.145 3.133 1.074 0 1.723-.477 1.961-.672v.547h1.242V1.703h-1.258v2.888c-.414-.36-1.062-.68-1.93-.68-1.91 0-3.198 1.473-3.16 3.23zm1.309-.08c0 1.119.723 1.978 1.836 1.978a1.88 1.88 0 0 0 1.94-1.904c0-1.371-1.011-1.99-1.972-1.99s-1.805.798-1.805 1.916zm76.683-.028C96.771 5.275 95.532 3.9 93.664 3.9c-1.074 0-1.723.477-1.961.672v-.547h-1.242v8.22h1.258V9.583c.414.36 1.063.68 1.93.68 1.91 0 3.198-1.473 3.16-3.23zm-1.309.08c0-1.119-.723-1.978-1.836-1.978a1.88 1.88 0 0 0-1.94 1.904c0 1.371 1.011 1.99 1.972 1.99S95.5 8.231 95.5 7.113zM106.441 10.173V4.036h1.254v.382c.361-.346 1-.485 1.47-.485 1.452 0 2.477 1.082 2.457 2.448v3.792h-1.27V6.492c0-.408-.214-1.339-1.315-1.339-.969 0-1.342.756-1.342 1.339v3.681h-1.254zm-30.383-.021V1.824h1.084l4.215 5.777V1.824h1.32v8.328h-1.094l-4.207-5.796v5.796h-1.319zM5.24 10.149H4V2.377h1.014l2.664 3.597 2.654-3.592h1.03v7.766h-1.256V4.762L7.678 8.068 5.24 4.742v5.407z" transform="translate(861.211669921875, 723.2789306640625)" fill="#80808088" stroke="none"></path></svg>